G04 #@! TF.GenerationSoftware,KiCad,Pcbnew,(5.1.2)-2*
G04 #@! TF.CreationDate,2019-08-09T21:51:25-03:00*
G04 #@! TF.ProjectId,projeto 01,70726f6a-6574-46f2-9030-312e6b696361,rev?*
G04 #@! TF.SameCoordinates,Original*
G04 #@! TF.FileFunction,Copper,L1,Top*
G04 #@! TF.FilePolarity,Positive*
%FSLAX46Y46*%
G04 Gerber Fmt 4.6, Leading zero omitted, Abs format (unit mm)*
G04 Created by KiCad (PCBNEW (5.1.2)-2) date 2019-08-09 21:51:25*
%MOMM*%
%LPD*%
G04 APERTURE LIST*
%ADD10O,1.400000X1.400000*%
%ADD11C,1.400000*%
%ADD12R,1.050000X1.500000*%
%ADD13O,1.050000X1.500000*%
%ADD14C,1.600000*%
%ADD15C,1.000000*%
G04 APERTURE END LIST*
D10*
X140460000Y-93020000D03*
D11*
X132840000Y-93020000D03*
D10*
X140460000Y-89870000D03*
D11*
X132840000Y-89870000D03*
D10*
X140460000Y-86360000D03*
D11*
X132840000Y-86360000D03*
D12*
X143920000Y-88400000D03*
D13*
X146460000Y-88400000D03*
X145190000Y-88400000D03*
D14*
X146010000Y-92710000D03*
X143510000Y-92710000D03*
D15*
X142710001Y-91910001D02*
X143510000Y-92710000D01*
X142419999Y-91619999D02*
X142710001Y-91910001D01*
X132517997Y-91619999D02*
X142419999Y-91619999D01*
X131439999Y-90542001D02*
X132517997Y-91619999D01*
X131439999Y-87760001D02*
X131439999Y-90542001D01*
X132840000Y-86360000D02*
X131439999Y-87760001D01*
X146460000Y-90150000D02*
X146460000Y-88400000D01*
X147510001Y-91200001D02*
X146460000Y-90150000D01*
X147510001Y-93430001D02*
X147510001Y-91200001D01*
X146520001Y-94420001D02*
X147510001Y-93430001D01*
X134440001Y-94420001D02*
X146520001Y-94420001D01*
X133040000Y-93020000D02*
X134440001Y-94420001D01*
X132840000Y-93020000D02*
X133040000Y-93020000D01*
X136950000Y-89870000D02*
X140460000Y-86360000D01*
X132840000Y-89870000D02*
X136950000Y-89870000D01*
X141449949Y-86360000D02*
X140460000Y-86360000D01*
X144415002Y-86360000D02*
X141449949Y-86360000D01*
X145190000Y-87134998D02*
X144415002Y-86360000D01*
X145190000Y-88400000D02*
X145190000Y-87134998D01*
X140460000Y-89870000D02*
X140460000Y-90419989D01*
M02*
